<svg width="16" height="19" viewBox="0 0 19 19" fill="none" xmlns="http://www.w3.org/2000/svg">
<g filter="url(#filter0_d_136_15)">
<path fill-rule="evenodd" clip-rule="evenodd" d="M10.5792 1.91459C10.7062 1.6605 10.9659 1.5 11.25 1.5C11.9793 1.5 12.6788 1.78973 13.1945 2.30546C13.7103 2.82118 14 3.52065 14 4.25V5H17.1179C17.3664 4.99953 17.6121 5.05216 17.8385 5.15438C18.0653 5.25673 18.2676 5.40643 18.4317 5.59342C18.5958 5.78041 18.7181 6.00036 18.7902 6.23849C18.8619 6.47556 18.8824 6.72518 18.8501 6.97074L18.1004 12.9687C18.0473 13.3903 17.8426 13.7781 17.5247 14.0598C17.2067 14.3416 16.7971 14.498 16.3722 14.5L16.3687 14.5H5.75C5.41848 14.5 5.10054 14.3683 4.86612 14.1339C4.6317 13.8995 4.5 13.5815 4.5 13.25V7.75C4.5 7.41848 4.6317 7.10054 4.86612 6.86612C5.10054 6.6317 5.41848 6.5 5.75 6.5H8.28647L10.5792 1.91459ZM8 8H6V13H8V8ZM9.5 13H16.3664C16.4267 12.9995 16.4847 12.9771 16.5299 12.9371C16.5753 12.8969 16.6045 12.8415 16.6121 12.7813L17.362 6.78197L17.3628 6.77594C17.3674 6.74147 17.3646 6.70641 17.3545 6.67312C17.3444 6.63983 17.3273 6.60909 17.3044 6.58295C17.2815 6.55681 17.2532 6.53589 17.2215 6.52158C17.1898 6.50727 17.1554 6.49991 17.1206 6.5L17.1187 6.5H13.25C12.8358 6.5 12.5 6.16421 12.5 5.75V4.25C12.5 3.91848 12.3683 3.60054 12.1339 3.36612C12.0032 3.23544 11.8466 3.13668 11.6761 3.07486L9.5 7.42705V13Z" fill="white"/>
</g>
<defs>
<filter id="filter0_d_136_15" x="-0.5" y="0" width="24" height="24" filterUnits="userSpaceOnUse" color-interpolation-filters="sRGB">
<feFlood flood-opacity="0" result="BackgroundImageFix"/>
<feColorMatrix in="SourceAlpha" type="matrix" values="0 0 0 0 0 0 0 0 0 0 0 0 0 0 0 0 0 0 127 0" result="hardAlpha"/>
<feOffset dy="4"/>
<feGaussianBlur stdDeviation="2"/>
<feComposite in2="hardAlpha" operator="out"/>
<feColorMatrix type="matrix" values="0 0 0 0 0 0 0 0 0 0 0 0 0 0 0 0 0 0 0.25 0"/>
<feBlend mode="normal" in2="BackgroundImageFix" result="effect1_dropShadow_136_15"/>
<feBlend mode="normal" in="SourceGraphic" in2="effect1_dropShadow_136_15" result="shape"/>
</filter>
</defs>
</svg>
